<svg width="550" height="469" viewBox="0 0 550 469" fill="none" xmlns="http://www.w3.org/2000/svg">
<path d="M35.7081 362.809C36.8188 398.83 83.3739 434.635 106.513 448.036C137.247 471.192 208.172 438.387 239.792 419.091C259.228 422.843 305.598 433.885 335.586 448.036C365.574 462.186 426.753 442.14 453.594 430.347L527.175 356.377L520.234 314.568L548 279.191C542.909 279.191 528.563 282.086 511.904 293.664C495.244 305.242 500.334 275.975 504.962 259.895L532.728 137.684C520.234 163.948 491.634 221.302 477.195 240.598C462.757 259.895 455.445 240.062 453.594 227.734L464.701 100.699C460.073 121.603 446.375 172.417 428.604 208.437C410.833 244.458 397.135 217.014 392.508 198.789L385.566 33.1608L364.741 184.317C362.427 198.789 356.411 225.483 350.858 216.478C345.305 207.473 338.363 184.853 335.586 174.669L298.102 1C301.341 70.1458 305.876 210.045 298.102 216.478C290.327 222.91 278.202 207.365 273.112 198.789L218.967 33.1608C225.446 73.8979 238.681 164.055 239.792 198.789C240.903 233.523 220.818 219.694 210.637 208.437L156.492 76.578C166.673 122.139 186.48 216.156 184.259 227.734C182.038 239.312 170.376 232.558 164.822 227.734L75.9695 124.819C98.1827 159.124 143.442 231.915 146.774 248.638C150.106 265.362 128.726 255.607 117.619 248.638L57.9213 174.669L99.5711 259.895C99.5711 266.327 97.0721 279.191 87.0761 279.191C77.0802 279.191 25.5271 244.886 1 227.734C14.8832 240.598 45.7041 271.794 57.9213 293.664C70.1386 315.533 52.8308 309.208 42.6497 303.312L1 279.191C12.1066 292.056 34.5975 326.789 35.7081 362.809Z" fill="#A8D036" stroke="#A8D036"/>
<path d="M61 340.777L131.197 427H406.043L473 340.777C326.583 180.194 213.207 187.328 61 340.777Z" fill="#EC5A8F" fill-opacity="0.74" stroke="#EC5A8F" stroke-opacity="0.74"/>
<path d="M34.2487 403.483C35.3127 428.421 79.9103 453.209 102.076 462.486C131.519 478.517 199.461 455.807 229.751 442.448C248.371 445.045 292.791 452.69 321.518 462.486C350.245 472.283 408.851 458.404 434.563 450.24L505.051 399.03L498.401 370.086L525 345.594C520.124 345.594 506.381 347.598 490.421 355.613C474.462 363.629 479.338 343.367 483.772 332.235L510.371 247.627C498.401 265.81 471.004 305.517 457.173 318.876C443.341 332.235 436.337 318.505 434.563 309.97L445.203 222.022C440.77 236.494 427.648 271.674 410.624 296.611C393.601 321.548 380.479 302.548 376.046 289.931L369.396 175.265L349.447 279.912C347.23 289.931 341.467 308.411 336.147 302.177C330.827 295.943 324.178 280.283 321.518 273.232L285.609 153C288.712 200.87 293.057 297.724 285.609 302.177C278.161 306.63 266.547 295.868 261.67 289.931L209.802 175.265C216.008 203.468 228.687 265.885 229.751 289.931C230.815 313.977 211.575 304.403 201.822 296.611L149.954 205.323C159.707 236.866 178.681 301.954 176.553 309.97C174.425 317.985 163.254 313.309 157.934 309.97L72.8173 238.721C94.0965 262.471 137.453 312.864 140.645 324.442C143.837 336.02 123.355 329.266 112.716 324.442L55.5279 273.232L95.4264 332.235C95.4264 336.688 93.0325 345.594 83.4569 345.594C73.8812 345.594 24.4958 321.844 1 309.97C14.2995 318.876 43.8244 340.473 55.5279 355.613C67.2315 370.754 50.6514 366.375 40.8985 362.293L1 345.594C11.6396 354.5 33.1848 378.546 34.2487 403.483Z" fill="#52963B" stroke="#52963B"/>
</svg>
