<svg width="550" height="469" viewBox="0 0 550 469" fill="none" xmlns="http://www.w3.org/2000/svg">
<path d="M35.7081 362.809C36.8188 398.83 83.3739 434.635 106.513 448.036C137.247 471.192 208.172 438.387 239.792 419.091C259.228 422.843 305.598 433.885 335.586 448.036C365.574 462.186 426.753 442.14 453.594 430.347L527.175 356.377L520.234 314.568L548 279.191C542.909 279.191 528.563 282.086 511.904 293.664C495.244 305.242 500.334 275.975 504.962 259.895L532.728 137.684C520.234 163.948 491.634 221.302 477.195 240.598C462.757 259.895 455.445 240.062 453.594 227.734L464.701 100.699C460.073 121.603 446.375 172.417 428.604 208.437C410.833 244.458 397.135 217.014 392.508 198.789L385.566 33.1608L364.741 184.317C362.427 198.789 356.411 225.483 350.858 216.478C345.305 207.473 338.363 184.853 335.586 174.669L298.102 1C301.341 70.1458 305.876 210.045 298.102 216.478C290.327 222.91 278.202 207.365 273.112 198.789L218.967 33.1608C225.446 73.8979 238.681 164.055 239.792 198.789C240.903 233.523 220.818 219.694 210.637 208.437L156.492 76.578C166.673 122.139 186.48 216.156 184.259 227.734C182.038 239.312 170.376 232.558 164.822 227.734L75.9695 124.819C98.1827 159.124 143.442 231.915 146.774 248.638C150.106 265.362 128.726 255.607 117.619 248.638L57.9213 174.669L99.5711 259.895C99.5711 266.327 97.0721 279.191 87.0761 279.191C77.0802 279.191 25.5271 244.886 1 227.734C14.8832 240.598 45.7041 271.794 57.9213 293.664C70.1386 315.533 52.8308 309.208 42.6497 303.312L1 279.191C12.1066 292.056 34.5975 326.789 35.7081 362.809Z" fill="#A8D036" stroke="#A8D036"/>
<path d="M61 347.963L131.197 427H406.043L473 347.963C326.583 200.762 213.207 207.3 61 347.963Z" fill="#EC5A8F" fill-opacity="0.74" stroke="#EC5A8F" stroke-opacity="0.74"/>
<path d="M34.2487 446.904C35.3127 455.058 79.9103 463.164 102.076 466.197C131.519 471.439 199.461 464.013 229.751 459.645C248.371 460.494 292.791 462.994 321.518 466.197C350.245 469.4 408.851 464.862 434.563 462.193L505.051 445.448L498.401 435.984L525 427.975C520.124 427.975 506.381 428.63 490.421 431.251C474.462 433.872 479.338 427.247 483.772 423.607L510.371 395.942C498.401 401.887 471.004 414.871 457.173 419.239C443.341 423.607 436.337 419.117 434.563 416.327L445.203 387.569C440.77 392.301 427.648 403.804 410.624 411.958C393.601 420.112 380.479 413.9 376.046 409.774L369.396 372.28L349.447 406.498C347.23 409.774 341.467 415.817 336.147 413.778C330.827 411.74 324.178 406.619 321.518 404.314L285.609 365C288.712 380.653 293.057 412.322 285.609 413.778C278.161 415.235 266.547 411.716 261.67 409.774L209.802 372.28C216.008 381.502 228.687 401.911 229.751 409.774C230.815 417.637 211.575 414.506 201.822 411.958L149.954 382.109C159.707 392.423 178.681 413.706 176.553 416.327C174.425 418.948 163.254 417.419 157.934 416.327L72.8173 393.029C94.0965 400.795 137.453 417.273 140.645 421.059C143.837 424.845 123.355 422.636 112.716 421.059L55.5279 404.314L95.4264 423.607C95.4264 425.063 93.0325 427.975 83.4569 427.975C73.8812 427.975 24.4958 420.209 1 416.327C14.2995 419.239 43.8244 426.301 55.5279 431.251C67.2315 436.202 50.6514 434.77 40.8985 433.435L1 427.975C11.6396 430.887 33.1848 438.75 34.2487 446.904Z" fill="#52963B" stroke="#52963B"/>
</svg>
