<svg width="550" height="486" viewBox="0 0 550 486" fill="none" xmlns="http://www.w3.org/2000/svg">
<rect x="137" y="395" width="227" height="63" fill="#A8D036"/>
<path d="M35.7081 362.809C36.8188 398.83 83.3739 434.635 106.513 448.036C137.247 471.192 208.172 438.387 239.792 419.091C259.228 422.843 305.598 433.885 335.586 448.036C365.574 462.186 426.753 442.14 453.594 430.347L527.175 356.377L520.234 314.568L548 279.191C542.909 279.191 528.563 282.086 511.904 293.664C495.244 305.242 500.334 275.975 504.962 259.895L532.728 137.684C520.234 163.948 491.634 221.302 477.195 240.598C462.757 259.895 455.445 240.062 453.594 227.734L464.701 100.699C460.073 121.603 446.375 172.417 428.604 208.437C410.833 244.458 397.135 217.014 392.508 198.789L385.566 33.1608L364.741 184.317C362.427 198.789 356.411 225.483 350.858 216.478C345.305 207.473 338.363 184.853 335.586 174.669L298.102 1C301.341 70.1458 305.876 210.045 298.102 216.478C290.327 222.91 278.202 207.365 273.112 198.789L218.967 33.1608C225.446 73.8979 238.681 164.055 239.792 198.789C240.903 233.523 220.818 219.694 210.637 208.437L156.492 76.578C166.673 122.139 186.48 216.156 184.259 227.734C182.038 239.312 170.376 232.558 164.822 227.734L75.9695 124.819C98.1827 159.124 143.442 231.915 146.774 248.638C150.106 265.362 128.726 255.607 117.619 248.638L57.9213 174.669L99.5711 259.895C99.5711 266.327 97.0721 279.191 87.0761 279.191C77.0802 279.191 25.5271 244.886 1 227.734C14.8832 240.598 45.7041 271.794 57.9213 293.664C70.1386 315.533 52.8308 309.208 42.6497 303.312L1 279.191C12.1066 292.056 34.5975 326.789 35.7081 362.809Z" fill="#A8D036" stroke="#A8D036"/>
<path d="M61 347.963L131.197 427H406.043L473 347.963C326.583 200.762 213.207 207.3 61 347.963Z" fill="#EC5A8F" fill-opacity="0.74" stroke="#EC5A8F" stroke-opacity="0.74"/>
<path d="M34.2487 460.349C35.3127 457.895 79.9103 455.456 102.076 454.543C131.519 452.965 199.461 455.2 229.751 456.515C248.371 456.259 292.791 455.507 321.518 454.543C350.245 453.579 408.851 454.944 434.563 455.748L505.051 460.787L498.401 463.636L525 466.046C520.124 466.046 506.381 465.849 490.421 465.06C474.462 464.271 479.338 466.265 483.772 467.361L510.371 475.687C498.401 473.898 471.004 469.99 457.173 468.676C443.341 467.361 436.337 468.712 434.563 469.552L445.203 478.207C440.77 476.783 427.648 473.321 410.624 470.867C393.601 468.413 380.479 470.283 376.046 471.524L369.396 482.809L349.447 472.51C347.23 471.524 341.467 469.706 336.147 470.319C330.827 470.933 324.178 472.474 321.518 473.168L285.609 485C288.712 480.289 293.057 470.757 285.609 470.319C278.161 469.881 266.547 470.94 261.67 471.524L209.802 482.809C216.008 480.033 228.687 473.891 229.751 471.524C230.815 469.158 211.575 470.1 201.822 470.867L149.954 479.851C159.707 476.747 178.681 470.341 176.553 469.552C174.425 468.763 163.254 469.224 157.934 469.552L72.8173 476.564C94.0965 474.227 137.453 469.267 140.645 468.128C143.837 466.989 123.355 467.653 112.716 468.128L55.5279 473.168L95.4264 467.361C95.4264 466.923 93.0325 466.046 83.4569 466.046C73.8812 466.046 24.4958 468.384 1 469.552C14.2995 468.676 43.8244 466.55 55.5279 465.06C67.2315 463.57 50.6514 464.001 40.8985 464.403L1 466.046C11.6396 465.17 33.1848 462.803 34.2487 460.349Z" fill="#52963B" stroke="#52963B"/>
</svg>
