<svg width="550" height="679" viewBox="0 0 550 679" fill="none" xmlns="http://www.w3.org/2000/svg">
<rect x="153" y="422" width="227" height="63" fill="#A8D036"/>
<path d="M35.7081 362.809C36.8188 398.83 83.3739 434.635 106.513 448.036C137.247 471.192 208.172 438.387 239.792 419.091C259.228 422.843 305.598 433.885 335.586 448.036C365.574 462.186 426.753 442.14 453.594 430.347L527.175 356.377L520.234 314.568L548 279.191C542.909 279.191 528.563 282.086 511.904 293.664C495.244 305.242 500.334 275.975 504.962 259.895L532.728 137.684C520.234 163.948 491.634 221.302 477.195 240.598C462.757 259.895 455.445 240.062 453.594 227.734L464.701 100.699C460.073 121.603 446.375 172.417 428.604 208.437C410.833 244.458 397.135 217.014 392.508 198.789L385.566 33.1608L364.741 184.317C362.427 198.789 356.411 225.483 350.858 216.478C345.305 207.473 338.363 184.853 335.586 174.669L298.102 1C301.341 70.1458 305.876 210.045 298.102 216.478C290.327 222.91 278.202 207.365 273.112 198.789L218.967 33.1608C225.446 73.8979 238.681 164.055 239.792 198.789C240.903 233.523 220.818 219.694 210.637 208.437L156.492 76.578C166.673 122.139 186.48 216.156 184.259 227.734C182.038 239.312 170.376 232.558 164.822 227.734L75.9695 124.819C98.1827 159.124 143.442 231.915 146.774 248.638C150.106 265.362 128.726 255.607 117.619 248.638L57.9213 174.669L99.5711 259.895C99.5711 266.327 97.0721 279.191 87.0761 279.191C77.0802 279.191 25.5271 244.886 1 227.734C14.8832 240.598 45.7041 271.794 57.9213 293.664C70.1386 315.533 52.8308 309.208 42.6497 303.312L1 279.191C12.1066 292.056 34.5975 326.789 35.7081 362.809Z" fill="#A8D036" stroke="#A8D036"/>
<path d="M61 347.963L131.197 427H406.043L473 347.963C326.583 200.762 213.207 207.3 61 347.963Z" fill="#EC5A8F" fill-opacity="0.74" stroke="#EC5A8F" stroke-opacity="0.74"/>
<path d="M34.2487 499.878C35.3127 482.145 79.9103 464.518 102.076 457.921C131.519 446.521 199.461 462.671 229.751 472.171C248.371 470.323 292.791 464.887 321.518 457.921C350.245 450.954 408.851 460.824 434.563 466.629L505.051 503.045L498.401 523.628L525 541.044C520.124 541.044 506.381 539.619 490.421 533.919C474.462 528.22 479.338 542.628 483.772 550.544L510.371 610.71C498.401 597.779 471.004 569.544 457.173 560.044C443.341 550.544 436.337 560.308 434.563 566.377L445.203 628.918C440.77 618.626 427.648 593.61 410.624 575.877C393.601 558.144 380.479 571.655 376.046 580.627L369.396 662.167L349.447 587.752C347.23 580.627 341.467 567.485 336.147 571.919C330.827 576.352 324.178 587.488 321.518 592.502L285.609 678C288.712 643.959 293.057 575.085 285.609 571.919C278.161 568.752 266.547 576.405 261.67 580.627L209.802 662.167C216.008 642.112 228.687 597.727 229.751 580.627C230.815 563.527 211.575 570.335 201.822 575.877L149.954 640.792C159.707 618.362 178.681 572.077 176.553 566.377C174.425 560.677 163.254 564.002 157.934 566.377L72.8173 617.043C94.0965 600.154 137.453 564.319 140.645 556.086C143.837 547.852 123.355 552.655 112.716 556.086L55.5279 592.502L95.4264 550.544C95.4264 547.378 93.0325 541.044 83.4569 541.044C73.8812 541.044 24.4958 557.933 1 566.377C14.2995 560.044 43.8244 544.686 55.5279 533.919C67.2315 523.153 50.6514 526.267 40.8985 529.17L1 541.044C11.6396 534.711 33.1848 517.611 34.2487 499.878Z" fill="#52963B" stroke="#52963B"/>
</svg>
