<svg width="550" height="590" viewBox="0 0 550 590" fill="none" xmlns="http://www.w3.org/2000/svg">
<rect x="153" y="419" width="227" height="63" fill="#A8D036"/>
<path d="M35.7081 362.809C36.8188 398.83 83.3739 434.635 106.513 448.036C137.247 471.192 208.172 438.387 239.792 419.091C259.228 422.843 305.598 433.885 335.586 448.036C365.574 462.186 426.753 442.14 453.594 430.347L527.175 356.377L520.234 314.568L548 279.191C542.909 279.191 528.563 282.086 511.904 293.664C495.244 305.242 500.334 275.975 504.962 259.895L532.728 137.684C520.234 163.948 491.634 221.302 477.195 240.598C462.757 259.895 455.445 240.062 453.594 227.734L464.701 100.699C460.073 121.603 446.375 172.417 428.604 208.437C410.833 244.458 397.135 217.014 392.508 198.789L385.566 33.1608L364.741 184.317C362.427 198.789 356.411 225.483 350.858 216.478C345.305 207.473 338.363 184.853 335.586 174.669L298.102 1C301.341 70.1458 305.876 210.045 298.102 216.478C290.327 222.91 278.202 207.365 273.112 198.789L218.967 33.1608C225.446 73.8979 238.681 164.055 239.792 198.789C240.903 233.523 220.818 219.694 210.637 208.437L156.492 76.578C166.673 122.139 186.48 216.156 184.259 227.734C182.038 239.312 170.376 232.558 164.822 227.734L75.9695 124.819C98.1827 159.124 143.442 231.915 146.774 248.638C150.106 265.362 128.726 255.607 117.619 248.638L57.9213 174.669L99.5711 259.895C99.5711 266.327 97.0721 279.191 87.0761 279.191C77.0802 279.191 25.5271 244.886 1 227.734C14.8832 240.598 45.7041 271.794 57.9213 293.664C70.1386 315.533 52.8308 309.208 42.6497 303.312L1 279.191C12.1066 292.056 34.5975 326.789 35.7081 362.809Z" fill="#A8D036" stroke="#A8D036"/>
<path d="M61 347.963L131.197 427H406.043L473 347.963C326.583 200.762 213.207 207.3 61 347.963Z" fill="#EC5A8F" fill-opacity="0.74" stroke="#EC5A8F" stroke-opacity="0.74"/>
<path d="M34.2487 481.65C35.3127 470.963 79.9103 460.339 102.076 456.363C131.519 449.493 199.461 459.226 229.751 464.951C248.371 463.838 292.791 460.562 321.518 456.363C350.245 452.164 408.851 458.112 434.563 461.611L505.051 483.558L498.401 495.963L525 506.46C520.124 506.46 506.381 505.601 490.421 502.166C474.462 498.731 479.338 507.414 483.772 512.185L510.371 548.446C498.401 540.653 471.004 523.636 457.173 517.91C443.341 512.185 436.337 518.069 434.563 521.727L445.203 559.419C440.77 553.217 427.648 538.14 410.624 527.453C393.601 516.765 380.479 524.908 376.046 530.315L369.396 579.458L349.447 534.609C347.23 530.315 341.467 522.395 336.147 525.067C330.827 527.739 324.178 534.45 321.518 537.472L285.609 589C288.712 568.484 293.057 526.976 285.609 525.067C278.161 523.159 266.547 527.771 261.67 530.315L209.802 579.458C216.008 567.371 228.687 540.621 229.751 530.315C230.815 520.01 211.575 524.113 201.822 527.453L149.954 566.576C159.707 553.058 178.681 525.162 176.553 521.727C174.425 518.292 163.254 520.296 157.934 521.727L72.8173 552.262C94.0965 542.084 137.453 520.487 140.645 515.525C143.837 510.563 123.355 513.457 112.716 515.525L55.5279 537.472L95.4264 512.185C95.4264 510.277 93.0325 506.46 83.4569 506.46C73.8812 506.46 24.4958 516.638 1 521.727C14.2995 517.91 43.8244 508.654 55.5279 502.166C67.2315 495.677 50.6514 497.554 40.8985 499.303L1 506.46C11.6396 502.643 33.1848 492.337 34.2487 481.65Z" fill="#52963B" stroke="#52963B"/>
</svg>
