<svg width="550" height="469" viewBox="0 0 550 469" fill="none" xmlns="http://www.w3.org/2000/svg">
<path d="M35.7081 362.809C36.8188 398.83 83.3739 434.635 106.513 448.036C137.247 471.192 208.172 438.387 239.792 419.091C259.228 422.843 305.598 433.885 335.586 448.036C365.574 462.186 426.753 442.14 453.594 430.347L527.175 356.377L520.234 314.568L548 279.191C542.909 279.191 528.563 282.086 511.904 293.664C495.244 305.242 500.334 275.975 504.962 259.895L532.728 137.684C520.234 163.948 491.634 221.302 477.195 240.598C462.757 259.895 455.445 240.062 453.594 227.734L464.701 100.699C460.073 121.603 446.375 172.417 428.604 208.437C410.833 244.458 397.135 217.014 392.508 198.789L385.566 33.1608L364.741 184.317C362.427 198.789 356.411 225.483 350.858 216.478C345.305 207.473 338.363 184.853 335.586 174.669L298.102 1C301.341 70.1458 305.876 210.045 298.102 216.478C290.327 222.91 278.202 207.365 273.112 198.789L218.967 33.1608C225.446 73.8979 238.681 164.055 239.792 198.789C240.903 233.523 220.818 219.694 210.637 208.437L156.492 76.578C166.673 122.139 186.48 216.156 184.259 227.734C182.038 239.312 170.376 232.558 164.822 227.734L75.9695 124.819C98.1827 159.124 143.442 231.915 146.774 248.638C150.106 265.362 128.726 255.607 117.619 248.638L57.9213 174.669L99.5711 259.895C99.5711 266.327 97.0721 279.191 87.0761 279.191C77.0802 279.191 25.5271 244.886 1 227.734C14.8832 240.598 45.7041 271.794 57.9213 293.664C70.1386 315.533 52.8308 309.208 42.6497 303.312L1 279.191C12.1066 292.056 34.5975 326.789 35.7081 362.809Z" fill="#A8D036" stroke="#A8D036"/>
<path d="M61 346.695L131.197 427H406.043L473 346.695C326.583 197.132 213.207 203.776 61 346.695Z" fill="#EC5A8F" fill-opacity="0.74" stroke="#EC5A8F" stroke-opacity="0.74"/>
<path d="M34.2487 429.29C35.3127 444.252 79.9103 459.125 102.076 464.692C131.519 474.31 199.461 460.684 229.751 452.669C248.371 454.227 292.791 458.814 321.518 464.692C350.245 470.57 408.851 462.243 434.563 457.344L505.051 426.618L498.401 409.251L525 394.556C520.124 394.556 506.381 395.759 490.421 400.568C474.462 405.377 479.338 393.22 483.772 386.541L510.371 335.776C498.401 346.686 471.004 370.51 457.173 378.525C443.341 386.541 436.337 378.303 434.563 373.182L445.203 320.413C440.77 329.097 427.648 350.204 410.624 365.166C393.601 380.129 380.479 368.729 376.046 361.159L369.396 292.359L349.447 355.147C347.23 361.159 341.467 372.247 336.147 368.506C330.827 364.766 324.178 355.37 321.518 351.139L285.609 279C288.712 307.722 293.057 365.834 285.609 368.506C278.161 371.178 266.547 364.721 261.67 361.159L209.802 292.359C216.008 309.281 228.687 346.731 229.751 361.159C230.815 375.586 211.575 369.842 201.822 365.166L149.954 310.394C159.707 329.319 178.681 368.373 176.553 373.182C174.425 377.991 163.254 375.186 157.934 373.182L72.8173 330.433C94.0965 344.682 137.453 374.918 140.645 381.865C143.837 388.812 123.355 384.76 112.716 381.865L55.5279 351.139L95.4264 386.541C95.4264 389.213 93.0325 394.556 83.4569 394.556C73.8812 394.556 24.4958 380.307 1 373.182C14.2995 378.525 43.8244 391.484 55.5279 400.568C67.2315 409.652 50.6514 407.025 40.8985 404.576L1 394.556C11.6396 399.9 33.1848 414.328 34.2487 429.29Z" fill="#52963B" stroke="#52963B"/>
</svg>
