<svg width="550" height="469" viewBox="0 0 550 469" fill="none" xmlns="http://www.w3.org/2000/svg">
<path d="M35.7081 362.809C36.8188 398.83 83.3739 434.635 106.513 448.036C137.247 471.192 208.172 438.387 239.792 419.091C259.228 422.843 305.598 433.885 335.586 448.036C365.574 462.186 426.753 442.14 453.594 430.347L527.175 356.377L520.234 314.568L548 279.191C542.909 279.191 528.563 282.086 511.904 293.664C495.244 305.242 500.334 275.975 504.962 259.895L532.728 137.684C520.234 163.948 491.634 221.302 477.195 240.598C462.757 259.895 455.445 240.062 453.594 227.734L464.701 100.699C460.073 121.603 446.375 172.417 428.604 208.437C410.833 244.458 397.135 217.014 392.508 198.789L385.566 33.1608L364.741 184.317C362.427 198.789 356.411 225.483 350.858 216.478C345.305 207.473 338.363 184.853 335.586 174.669L298.102 1C301.341 70.1458 305.876 210.045 298.102 216.478C290.327 222.91 278.202 207.365 273.112 198.789L218.967 33.1608C225.446 73.8979 238.681 164.055 239.792 198.789C240.903 233.523 220.818 219.694 210.637 208.437L156.492 76.578C166.673 122.139 186.48 216.156 184.259 227.734C182.038 239.312 170.376 232.558 164.822 227.734L75.9695 124.819C98.1827 159.124 143.442 231.915 146.774 248.638C150.106 265.362 128.726 255.607 117.619 248.638L57.9213 174.669L99.5711 259.895C99.5711 266.327 97.0721 279.191 87.0761 279.191C77.0802 279.191 25.5271 244.886 1 227.734C14.8832 240.598 45.7041 271.794 57.9213 293.664C70.1386 315.533 52.8308 309.208 42.6497 303.312L1 279.191C12.1066 292.056 34.5975 326.789 35.7081 362.809Z" fill="#A8D036" stroke="#A8D036"/>
<path d="M61 340.777L131.197 427H406.043L473 340.777C326.583 180.194 213.207 187.328 61 340.777Z" fill="#EC5A8F" fill-opacity="0.74" stroke="#EC5A8F" stroke-opacity="0.74"/>
<path d="M34.2487 390.785C35.3127 420.63 79.9103 450.298 102.076 461.401C131.519 480.587 199.461 453.407 229.751 437.418C248.371 440.527 292.791 449.676 321.518 461.401C350.245 473.126 408.851 456.516 434.563 446.745L505.051 385.456L498.401 350.814L525 321.501C520.124 321.501 506.381 323.9 490.421 333.493C474.462 343.086 479.338 318.837 483.772 305.513L510.371 204.252C498.401 226.014 471.004 273.536 457.173 289.524C443.341 305.513 436.337 289.08 434.563 278.865L445.203 173.607C440.77 190.928 427.648 233.031 410.624 262.877C393.601 292.722 380.479 269.983 376.046 254.882L369.396 117.648L349.447 242.891C347.23 254.882 341.467 277 336.147 269.539C330.827 262.077 324.178 243.335 321.518 234.897L285.609 91C288.712 148.292 293.057 264.209 285.609 269.539C278.161 274.868 266.547 261.988 261.67 254.882L209.802 117.648C216.008 151.401 228.687 226.103 229.751 254.882C230.815 283.662 211.575 272.203 201.822 262.877L149.954 153.622C159.707 191.372 178.681 269.272 176.553 278.865C174.425 288.458 163.254 282.862 157.934 278.865L72.8173 193.593C94.0965 222.017 137.453 282.329 140.645 296.186C143.837 310.043 123.355 301.96 112.716 296.186L55.5279 234.897L95.4264 305.513C95.4264 310.842 93.0325 321.501 83.4569 321.501C73.8812 321.501 24.4958 293.077 1 278.865C14.2995 289.524 43.8244 315.372 55.5279 333.493C67.2315 351.613 50.6514 346.372 40.8985 341.487L1 321.501C11.6396 332.16 33.1848 360.94 34.2487 390.785Z" fill="#52963B" stroke="#52963B"/>
</svg>
