<svg width="550" height="802" viewBox="0 0 550 802" fill="none" xmlns="http://www.w3.org/2000/svg">
<rect x="143" y="427" width="227" height="63" fill="#A8D036"/>
<path d="M35.7081 362.809C36.8188 398.83 83.3739 434.635 106.513 448.036C137.247 471.192 208.172 438.387 239.792 419.091C259.228 422.843 305.598 433.885 335.586 448.036C365.574 462.186 426.753 442.14 453.594 430.347L527.175 356.377L520.234 314.568L548 279.191C542.909 279.191 528.563 282.086 511.904 293.664C495.244 305.242 500.334 275.975 504.962 259.895L532.728 137.684C520.234 163.948 491.634 221.302 477.195 240.598C462.757 259.895 455.445 240.062 453.594 227.734L464.701 100.699C460.073 121.603 446.375 172.417 428.604 208.437C410.833 244.458 397.135 217.014 392.508 198.789L385.566 33.1608L364.741 184.317C362.427 198.789 356.411 225.483 350.858 216.478C345.305 207.473 338.363 184.853 335.586 174.669L298.102 1C301.341 70.1458 305.876 210.045 298.102 216.478C290.327 222.91 278.202 207.365 273.112 198.789L218.967 33.1608C225.446 73.8979 238.681 164.055 239.792 198.789C240.903 233.523 220.818 219.694 210.637 208.437L156.492 76.578C166.673 122.139 186.48 216.156 184.259 227.734C182.038 239.312 170.376 232.558 164.822 227.734L75.9695 124.819C98.1827 159.124 143.442 231.915 146.774 248.638C150.106 265.362 128.726 255.607 117.619 248.638L57.9213 174.669L99.5711 259.895C99.5711 266.327 97.0721 279.191 87.0761 279.191C77.0802 279.191 25.5271 244.886 1 227.734C14.8832 240.598 45.7041 271.794 57.9213 293.664C70.1386 315.533 52.8308 309.208 42.6497 303.312L1 279.191C12.1066 292.056 34.5975 326.789 35.7081 362.809Z" fill="#A8D036" stroke="#A8D036"/>
<path d="M61 347.963L131.197 427H406.043L473 347.963C326.583 200.762 213.207 207.3 61 347.963Z" fill="#EC5A8F" fill-opacity="0.74" stroke="#EC5A8F" stroke-opacity="0.74"/>
<path d="M34.2487 525.071C35.3127 497.6 79.9103 470.293 102.076 460.074C131.519 442.414 199.461 467.432 229.751 482.148C248.371 479.287 292.791 470.866 321.518 460.074C350.245 449.282 408.851 464.57 434.563 473.564L505.051 529.976L498.401 561.861L525 588.841C520.124 588.841 506.381 586.633 490.421 577.804C474.462 568.974 479.338 591.294 483.772 603.557L510.371 696.76C498.401 676.73 471.004 632.99 457.173 618.273C443.341 603.557 436.337 618.682 434.563 628.084L445.203 724.966C440.77 709.024 427.648 670.271 410.624 642.8C393.601 615.33 380.479 636.26 376.046 650.159L369.396 776.473L349.447 661.196C347.23 650.159 341.467 629.801 336.147 636.669C330.827 643.536 324.178 660.787 321.518 668.554L285.609 801C288.712 748.267 293.057 641.574 285.609 636.669C278.161 631.763 266.547 643.618 261.67 650.159L209.802 776.473C216.008 745.405 228.687 676.648 229.751 650.159C230.815 623.669 211.575 634.216 201.822 642.8L149.954 743.361C159.707 708.615 178.681 636.914 176.553 628.084C174.425 619.254 163.254 624.405 157.934 628.084L72.8173 706.571C94.0965 680.409 137.453 624.896 140.645 612.142C143.837 599.388 123.355 606.827 112.716 612.142L55.5279 668.554L95.4264 603.557C95.4264 598.652 93.0325 588.841 83.4569 588.841C73.8812 588.841 24.4958 615.003 1 628.084C14.2995 618.273 43.8244 594.482 55.5279 577.804C67.2315 561.125 50.6514 565.949 40.8985 570.446L1 588.841C11.6396 579.03 33.1848 552.541 34.2487 525.071Z" fill="#52963B" stroke="#52963B"/>
</svg>
